<svg width="48" height="43" viewBox="0 0 48 43" fill="none" xmlns="http://www.w3.org/2000/svg">
<path d="M0.257813 40.65L1.45781 32.1C3.85781 32.3 5.80781 31.925 7.30781 30.975C8.80781 29.975 9.83281 28.575 10.3828 26.775C10.9828 24.925 11.1078 22.8 10.7578 20.4H0.257813V-4.29153e-06H20.6578V20.4C20.6578 27.6 18.9828 33.05 15.6328 36.75C12.2828 40.45 7.15781 41.75 0.257813 40.65ZM27.4078 40.65L28.6078 32.1C31.0078 32.3 32.9578 31.925 34.4578 30.975C35.9578 29.975 36.9828 28.575 37.5328 26.775C38.1328 24.925 38.2578 22.8 37.9078 20.4H27.4078V-4.29153e-06H47.8078V20.4C47.8078 27.6 46.1328 33.05 42.7828 36.75C39.4328 40.45 34.3078 41.75 27.4078 40.65Z" fill="#676667"/>
</svg>
